<svg width="58" height="59" viewBox="0 0 58 59" fill="none" xmlns="http://www.w3.org/2000/svg">
<path fill-rule="evenodd" clip-rule="evenodd" d="M29 58.9272C45.0163 58.9272 58 45.9435 58 29.9272C58 13.911 45.0163 0.927246 29 0.927246C12.9837 0.927246 0 13.911 0 29.9272C0 45.9435 12.9837 58.9272 29 58.9272Z" fill="white"/>
<rect opacity="0.01" x="15" y="15.9272" width="28" height="28" fill="white"/>
<path fill-rule="evenodd" clip-rule="evenodd" d="M30.75 41.9272H26.38C25.8277 41.9272 25.38 41.4797 25.38 40.9276C25.38 40.3756 25.8277 39.928 26.38 39.928H29.75V37.579C29.7511 37.4251 29.6897 37.2772 29.58 37.1692C29.4297 37.0249 29.2284 36.9459 29.02 36.9493C24.648 36.9881 21.0694 33.4826 21.02 29.1126V20.926C21.02 19.2698 22.3631 17.9272 24.02 17.9272H34.02C35.6769 17.9272 37.02 19.2698 37.02 20.926V29.1126C37.0235 31.5093 35.9155 33.7722 34.02 35.24C33.7428 35.4926 33.3475 35.5688 32.9962 35.4375C32.6448 35.3062 32.3965 34.9895 32.3531 34.617C32.3096 34.2446 32.4783 33.8792 32.79 33.6707C34.2001 32.5824 35.0271 30.9033 35.03 29.1226V20.936C35.03 20.3839 34.5823 19.9364 34.03 19.9364H24C23.4477 19.9364 23 20.3839 23 20.936V29.1226C23.0494 32.3885 25.7326 34.999 29 34.9601C29.7465 34.9505 30.4661 35.2382 31 35.7598C31.4862 36.2404 31.7599 36.8955 31.76 37.579V40.9276C31.76 41.1945 31.6533 41.4502 31.4636 41.638C31.2739 41.8257 31.0169 41.9299 30.75 41.9272ZM20 28.9326V23.9347C20 23.3827 19.5523 22.9351 19 22.9351C18.4477 22.9351 18 23.3827 18 23.9347V28.9326C18 29.4847 18.4477 29.9322 19 29.9322C19.5523 29.9322 20 29.4847 20 28.9326ZM40 28.9326V23.9347C40 23.3827 39.5523 22.9351 39 22.9351C38.4477 22.9351 38 23.3827 38 23.9347V28.9326C38 29.4847 38.4477 29.9322 39 29.9322C39.5523 29.9322 40 29.4847 40 28.9326Z" fill="#3A3B3B"/>
</svg>
