<svg width="48" height="48" viewBox="0 0 48 48" fill="none" xmlns="http://www.w3.org/2000/svg">
<path fill-rule="evenodd" clip-rule="evenodd" d="M24 48C37.2548 48 48 37.2548 48 24C48 10.7452 37.2548 0 24 0C10.7452 0 0 10.7452 0 24C0 37.2548 10.7452 48 24 48Z" fill="#3A3B3B"/>
<g clip-path="url(#clip0_807_30084)">
<path d="M22.2461 34.1821C17.3762 33.3492 13.6697 29.1073 13.6697 24C13.6697 18.8927 17.3762 14.6507 22.2461 13.8179" stroke="white" stroke-width="1.5" stroke-miterlimit="10" stroke-linecap="round" stroke-linejoin="round"/>
<path d="M22.2461 13.8179L21.1868 15.6981" stroke="white" stroke-width="1.5" stroke-miterlimit="10" stroke-linecap="round" stroke-linejoin="round"/>
<path d="M22.2461 13.8179L20.3982 12.7031" stroke="white" stroke-width="1.5" stroke-miterlimit="10" stroke-linecap="round" stroke-linejoin="round"/>
<path d="M25.7542 13.8179C30.624 14.6507 34.3305 18.8927 34.3305 24C34.3305 29.1073 30.624 33.3492 25.7542 34.1821" stroke="white" stroke-width="1.5" stroke-miterlimit="10" stroke-linecap="round" stroke-linejoin="round"/>
<path d="M25.7542 34.182L26.8135 32.3018" stroke="white" stroke-width="1.5" stroke-miterlimit="10" stroke-linecap="round" stroke-linejoin="round"/>
<path d="M25.7542 34.1821L27.602 35.2969" stroke="white" stroke-width="1.5" stroke-miterlimit="10" stroke-linecap="round" stroke-linejoin="round"/>
<path d="M27.4732 29.4844H20.5268C19.8475 29.4844 19.2969 28.9338 19.2969 28.2545V23.8122C19.2969 23.1329 19.8475 22.5823 20.5268 22.5823H27.4732C28.1525 22.5823 28.7031 23.1329 28.7031 23.8122V28.2545C28.7031 28.9338 28.1525 29.4844 27.4732 29.4844Z" stroke="white" stroke-width="1.5" stroke-miterlimit="10" stroke-linecap="round" stroke-linejoin="round"/>
<path d="M27.6094 22.5822V21.4688C27.6094 19.4753 25.9934 17.8594 24 17.8594C22.0066 17.8594 20.3906 19.4753 20.3906 21.4688V22.5822" stroke="white" stroke-width="1.5" stroke-miterlimit="10" stroke-linecap="round" stroke-linejoin="round"/>
<path d="M24 25.5469V26.5197" stroke="white" stroke-width="1.5" stroke-miterlimit="10" stroke-linecap="round" stroke-linejoin="round"/>
</g>
<defs>
<clipPath id="clip0_807_30084">
<rect width="24" height="24" fill="white" transform="translate(12 12)"/>
</clipPath>
</defs>
</svg>
