<svg width="48" height="48" viewBox="0 0 48 48" fill="none" xmlns="http://www.w3.org/2000/svg">
<path fill-rule="evenodd" clip-rule="evenodd" d="M24 48C37.2548 48 48 37.2548 48 24C48 10.7452 37.2548 0 24 0C10.7452 0 0 10.7452 0 24C0 37.2548 10.7452 48 24 48Z" fill="#3A3B3B"/>
<rect opacity="0.01" x="12" y="12" width="24" height="24" fill="white"/>
<path fill-rule="evenodd" clip-rule="evenodd" d="M24.0437 33.9999C19.4746 34.0197 15.4733 30.9398 14.323 26.5177C13.1727 22.0956 15.166 17.4562 19.1655 15.2469C23.165 13.0376 28.1533 13.8204 31.2839 17.1486C34.4145 20.4768 34.891 25.5038 32.4416 29.361C32.1964 29.7483 31.6837 29.8634 31.2964 29.6182C30.9091 29.373 30.794 28.8603 31.0391 28.473C33.3034 24.8742 32.4813 20.146 29.1352 17.5227C25.7891 14.8994 21.0016 15.2297 18.0474 18.2877C15.0932 21.3457 14.9281 26.1419 17.6651 29.3957C20.4021 32.6495 25.1556 33.3082 28.6741 30.9211C28.9202 30.7551 29.2361 30.733 29.503 30.863C29.7698 30.9931 29.9469 31.2557 29.9677 31.5518C29.9884 31.848 29.8496 32.1327 29.6035 32.2987C27.9607 33.4063 26.0249 33.9986 24.0437 33.9999ZM27.114 27.1121C27.4358 26.7884 27.4358 26.2656 27.114 25.9419L24.8735 23.693V19.0624C24.8735 18.6041 24.502 18.2325 24.0437 18.2325C23.5854 18.2325 23.2138 18.6041 23.2138 19.0624V24.3818L25.944 27.1121C26.2676 27.4338 26.7904 27.4338 27.114 27.1121Z" fill="white"/>
</svg>
