<svg width="48" height="48" viewBox="0 0 48 48" fill="none" xmlns="http://www.w3.org/2000/svg">
<path fill-rule="evenodd" clip-rule="evenodd" d="M24 48C37.2548 48 48 37.2548 48 24C48 10.7452 37.2548 0 24 0C10.7452 0 0 10.7452 0 24C0 37.2548 10.7452 48 24 48Z" fill="#3A3B3B"/>
<rect opacity="0.01" x="12" y="12" width="24" height="24" fill="white"/>
<path fill-rule="evenodd" clip-rule="evenodd" d="M29.7929 33.9833H24.4792C24.0192 33.9833 23.6463 33.6084 23.6463 33.1461C23.6463 32.6837 24.0192 32.3089 24.4792 32.3089H29.7929C30.0795 32.309 30.3131 32.0779 30.3176 31.7899V22.154C30.3174 22.0163 30.2636 21.8841 30.1677 21.7857L27.5775 19.1821C27.4801 19.0849 27.3482 19.0307 27.211 19.0314H22.5136C22.2271 19.036 21.9972 19.2708 21.9972 19.5588V33.1628C21.9972 33.6252 21.6243 34 21.1644 34C20.7044 34 20.3315 33.6252 20.3315 33.1628V19.5588C20.3361 18.3461 21.3154 17.3654 22.5219 17.3654H27.2193C27.8007 17.3634 28.3586 17.5956 28.7685 18.01L31.3587 20.6136C31.7687 21.0272 31.9992 21.587 32 22.1708V31.8066C31.9863 33.0193 30.9994 33.9926 29.7929 33.9833ZM18.6574 29.7974V16.1934C18.662 15.9054 18.8956 15.6743 19.1821 15.6743H24.7124C25.1724 15.6743 25.5453 15.2995 25.5453 14.8372C25.5453 14.3748 25.1724 14 24.7124 14H19.1821C17.9756 14.0046 17 14.989 17 16.2018V29.8058C17 30.2681 17.3729 30.6429 17.8329 30.6429C18.2929 30.6429 18.6657 30.2681 18.6657 29.8058L18.6574 29.7974Z" fill="white"/>
</svg>
