<svg width="48" height="48" viewBox="0 0 48 48" fill="none" xmlns="http://www.w3.org/2000/svg">
<path fill-rule="evenodd" clip-rule="evenodd" d="M24 48C37.2548 48 48 37.2548 48 24C48 10.7452 37.2548 0 24 0C10.7452 0 0 10.7452 0 24C0 37.2548 10.7452 48 24 48Z" fill="#3A3B3B"/>
<rect opacity="0.01" x="12" y="12" width="24" height="24" fill="white"/>
<path fill-rule="evenodd" clip-rule="evenodd" d="M31.4168 32H16.4881C15.114 32 14 30.8809 14 29.5005V19.5023C14 18.1218 15.114 17.0028 16.4881 17.0028H32.2461C32.9905 16.9599 33.6719 17.4212 33.9117 18.1304C34.1515 18.8396 33.8909 19.6224 33.2745 20.0439L25.5614 26.0011C24.6283 26.7217 23.3203 26.6869 22.4264 25.9178L17.6409 21.8019C17.4157 21.6084 17.3104 21.3089 17.3646 21.0163C17.4188 20.7236 17.6243 20.4822 17.9037 20.383C18.1831 20.2839 18.4939 20.342 18.7191 20.5354L23.5046 24.6514C23.8091 24.8995 24.245 24.8995 24.5496 24.6514L32.2627 18.6941L16.4881 18.6691C16.0301 18.6691 15.6587 19.0421 15.6587 19.5023V29.5005C15.6587 29.9606 16.0301 30.3336 16.4881 30.3336H31.4168C31.8748 30.3336 32.2461 29.9606 32.2461 29.5005V22.835C32.2461 22.3749 32.6174 22.0018 33.0755 22.0018C33.5335 22.0018 33.9049 22.3749 33.9049 22.835V29.5005C33.9049 30.8809 32.7909 32 31.4168 32Z" fill="white"/>
</svg>
