<svg  width="28" height="28" viewBox="0 0 28 28" fill="none" xmlns="http://www.w3.org/2000/svg">
<rect opacity="0.01" width="28" height="28" fill="white"/>
<path fill-rule="evenodd" clip-rule="evenodd" d="M11.9877 18C7.99843 17.9128 4.31251 15.848 2.14981 12.489C2.05268 12.3496 2.0004 12.1838 2 12.0137C2 11.8359 2.05209 11.662 2.14981 11.5135C4.24951 8.08769 7.97461 6 11.9877 6C16.0007 6 19.7258 8.08769 21.8255 11.5135C22.014 11.7571 22.053 12.085 21.9268 12.3661C21.8007 12.6472 21.53 12.8357 21.223 12.8562C20.916 12.8767 20.6228 12.7258 20.4605 12.464C18.6054 9.55651 15.4311 7.76048 11.9877 7.66996C8.74553 7.74686 5.73046 9.35437 3.85604 12.0054C5.73046 14.6564 8.74553 16.264 11.9877 16.3409C14.2307 16.3238 16.3985 15.5283 18.1217 14.0898C18.4794 13.827 18.98 13.8914 19.2598 14.2362C19.5396 14.581 19.5003 15.085 19.1704 15.3821C17.1506 17.0607 14.6121 17.9859 11.9877 18ZM14.4846 11.8387C14.4846 10.4573 13.3667 9.33744 11.9877 9.33744C11.528 9.33744 11.1553 9.71072 11.1553 10.1712C11.1553 10.6316 11.528 11.0049 11.9877 11.0049C12.4473 11.0049 12.82 11.3782 12.82 11.8387C12.82 12.2991 12.4473 12.6724 11.9877 12.6724C11.528 12.6724 11.1553 12.2991 11.1553 11.8387C11.1553 11.3782 10.7827 11.0049 10.323 11.0049C9.86338 11.0049 9.49074 11.3782 9.49074 11.8387C9.49074 13.22 10.6086 14.3399 11.9877 14.3399C13.3667 14.3399 14.4846 13.22 14.4846 11.8387Z" fill="black"/>
</svg>
