<svg width="48" height="48" viewBox="0 0 48 48" fill="none" xmlns="http://www.w3.org/2000/svg">
<path fill-rule="evenodd" clip-rule="evenodd" d="M24 48C37.2548 48 48 37.2548 48 24C48 10.7452 37.2548 0 24 0C10.7452 0 0 10.7452 0 24C0 37.2548 10.7452 48 24 48Z" fill="#3A3B3B"/>
<rect opacity="0.01" x="12" y="12" width="24" height="24" fill="white"/>
<path fill-rule="evenodd" clip-rule="evenodd" d="M31.5 32H16.5C15.1193 32 14 30.8807 14 29.5V26.1667C14 25.2462 14.7462 24.5 15.6667 24.5H17.3333C18.2538 24.5 19 25.2462 19 26.1667V27.8333C19 28.2936 18.6269 28.6667 18.1667 28.6667C17.7064 28.6667 17.3333 28.2936 17.3333 27.8333V26.1667H15.6667V29.5C15.6667 29.9602 16.0398 30.3333 16.5 30.3333H31.5C31.9602 30.3333 32.3333 29.9602 32.3333 29.5V18.6667H30.6667V27.8333C30.6667 28.2936 30.2936 28.6667 29.8333 28.6667C29.3731 28.6667 29 28.2936 29 27.8333V18.6667C29 17.7462 29.7462 17 30.6667 17H32.3333C33.2538 17 34 17.7462 34 18.6667V29.5C34 30.8807 32.8807 32 31.5 32ZM26.5 27.8333V23.6667C26.5 22.7462 25.7538 22 24.8333 22H23.1667C22.2462 22 21.5 22.7462 21.5 23.6667V27.8333C21.5 28.2936 21.8731 28.6667 22.3333 28.6667C22.7936 28.6667 23.1667 28.2936 23.1667 27.8333V23.6667H24.8333V27.8333C24.8333 28.2936 25.2064 28.6667 25.6667 28.6667C26.1269 28.6667 26.5 28.2936 26.5 27.8333Z" fill="white"/>
</svg>
