<svg width="48" height="48" viewBox="0 0 48 48" fill="none" xmlns="http://www.w3.org/2000/svg">
<path fill-rule="evenodd" clip-rule="evenodd" d="M24 48C37.2548 48 48 37.2548 48 24C48 10.7452 37.2548 0 24 0C10.7452 0 0 10.7452 0 24C0 37.2548 10.7452 48 24 48Z" fill="#3A3B3B"/>
<rect opacity="0.01" x="12" y="12" width="24" height="24" fill="white"/>
<path fill-rule="evenodd" clip-rule="evenodd" d="M27.8672 34H17.5734C16.1522 34 15 32.8807 15 31.5V16.5C15 15.1193 16.1522 14 17.5734 14H27.8672C29.2884 14 30.4406 15.1193 30.4406 16.5V17.3333C30.4406 17.7936 30.0566 18.1667 29.5828 18.1667C29.109 18.1667 28.725 17.7936 28.725 17.3333V16.5C28.725 16.0398 28.3409 15.6667 27.8672 15.6667H17.5734C17.0997 15.6667 16.7156 16.0398 16.7156 16.5V31.5C16.7156 31.9602 17.0997 32.3333 17.5734 32.3333H27.8672C28.3409 32.3333 28.725 31.9602 28.725 31.5V30.6667C28.725 30.2064 29.109 29.8333 29.5828 29.8333C30.0566 29.8333 30.4406 30.2064 30.4406 30.6667V31.5C30.4406 32.8807 29.2884 34 27.8672 34ZM32.9197 24.375C33.0498 24.1039 33.0203 23.7859 32.8425 23.5417L30.269 20.2083C29.9848 19.8401 29.4471 19.7655 29.0681 20.0417C28.6891 20.3178 28.6123 20.8401 28.8965 21.2083L30.4406 23.1667H22.7203C22.2465 23.1667 21.8625 23.5398 21.8625 24C21.8625 24.4602 22.2465 24.8333 22.7203 24.8333H32.1562C32.4792 24.8324 32.7743 24.6552 32.9197 24.375ZM30.269 27.8333L30.9124 27C31.1967 26.6318 31.1198 26.1095 30.7408 25.8333C30.3618 25.5572 29.8242 25.6318 29.5399 26L28.8965 26.8333C28.6123 27.2015 28.6891 27.7239 29.0681 28C29.4471 28.2761 29.9848 28.2015 30.269 27.8333Z" fill="white"/>
</svg>
