<svg width="48" height="48" viewBox="0 0 48 48" fill="none" xmlns="http://www.w3.org/2000/svg">
<path fill-rule="evenodd" clip-rule="evenodd" d="M24 48C37.2548 48 48 37.2548 48 24C48 10.7452 37.2548 0 24 0C10.7452 0 0 10.7452 0 24C0 37.2548 10.7452 48 24 48Z" fill="#3A3B3B"/>
<rect opacity="0.01" x="12" y="12" width="24" height="24" fill="white"/>
<path fill-rule="evenodd" clip-rule="evenodd" d="M24.0396 26.5298C23.4306 26.5399 22.8389 26.327 22.3761 25.9313L20.9038 24.6676C20.5547 24.3692 20.5137 23.8444 20.8123 23.4955C21.1109 23.1465 21.636 23.1056 21.9851 23.404L23.4574 24.6676C23.7628 24.9153 24.2 24.9153 24.5054 24.6676L32.241 18.7236L16.4371 18.6654C15.9777 18.6654 15.6053 18.2932 15.6053 17.8341C15.6053 17.375 15.9777 17.0028 16.4371 17.0028H32.241C32.9875 16.9599 33.6709 17.4202 33.9114 18.1279C34.152 18.8355 33.8906 19.6166 33.2724 20.0371L25.5368 25.9811C25.1113 26.3228 24.5853 26.5155 24.0396 26.5298ZM33.9628 29.506V22.8553C33.9628 22.3962 33.5904 22.024 33.131 22.024C32.6716 22.024 32.2992 22.3962 32.2992 22.8553V29.506C32.2992 29.9651 31.9268 30.3373 31.4675 30.3373H19.8225C19.3631 30.3373 18.9907 30.7095 18.9907 31.1687C18.9907 31.6278 19.3631 32 19.8225 32H31.4675C32.8456 32 33.9628 30.8834 33.9628 29.506ZM20.6543 21.1927C20.6543 20.7335 20.2819 20.3613 19.8225 20.3613H14.8318C14.3724 20.3613 14 20.7335 14 21.1927C14 21.6518 14.3724 22.024 14.8318 22.024H19.8225C20.2819 22.024 20.6543 21.6518 20.6543 21.1927ZM20.6543 27.8433C20.6543 27.3842 20.2819 27.012 19.8225 27.012H17.3271C16.8678 27.012 16.4954 27.3842 16.4954 27.8433C16.4954 28.3025 16.8678 28.6747 17.3271 28.6747H19.8225C20.2819 28.6747 20.6543 28.3025 20.6543 27.8433Z" fill="white"/>
</svg>
