<svg width="48" height="48" viewBox="0 0 48 48" fill="none" xmlns="http://www.w3.org/2000/svg">
<path fill-rule="evenodd" clip-rule="evenodd" d="M24 48C37.2548 48 48 37.2548 48 24C48 10.7452 37.2548 0 24 0C10.7452 0 0 10.7452 0 24C0 37.2548 10.7452 48 24 48Z" fill="#3A3B3B"/>
<rect opacity="0.01" x="12" y="12" width="24" height="24" fill="white"/>
<path fill-rule="evenodd" clip-rule="evenodd" d="M24.4125 33.9994C23.6449 33.9994 22.8908 33.807 22.226 33.4415C21.9413 33.2998 21.7612 33.0209 21.7568 32.715C21.7525 32.4092 21.9246 32.1258 22.2052 31.9767C22.4857 31.8277 22.8295 31.837 23.1006 32.0011C23.8309 32.3994 24.7175 32.44 25.4845 32.1103C26.2516 31.7807 26.806 31.1207 26.9752 30.3359C27.1365 29.5414 27.8745 28.9724 28.7244 28.9871H31.1996L30.5961 26.6891C30.5877 26.6227 30.5877 26.5556 30.5961 26.4892V21.7184C30.6548 18.5885 28.1605 15.9485 24.8848 15.6736C23.1911 15.5651 21.5261 16.1309 20.2874 17.2359C19.0487 18.3409 18.3476 19.8859 18.3514 21.5019V26.4976C18.3598 26.5639 18.3598 26.631 18.3514 26.6974L17.7479 28.9954H24.5C24.983 28.9954 25.3746 29.3682 25.3746 29.828C25.3746 30.2878 24.983 30.6606 24.5 30.6606H17.7479C17.2103 30.6602 16.7027 30.4245 16.3715 30.0214C16.0402 29.6183 15.9221 29.0926 16.0511 28.5957L16.6284 26.3976V21.5102C16.6235 19.4331 17.5245 17.4473 19.1163 16.0267C20.708 14.6061 22.8478 13.8782 25.0248 14.0167C29.2184 14.3487 32.4274 17.7127 32.3716 21.7184V26.381L32.9489 28.5791C33.0779 29.0759 32.9598 29.6016 32.6285 30.0047C32.2973 30.4079 31.7897 30.6436 31.2521 30.644H28.7769C28.3666 32.6204 26.5286 34.0336 24.4125 33.9994Z" fill="white"/>
</svg>
