<svg width="48" height="48" viewBox="0 0 48 48" fill="none" xmlns="http://www.w3.org/2000/svg">
<path fill-rule="evenodd" clip-rule="evenodd" d="M24 48C37.2548 48 48 37.2548 48 24C48 10.7452 37.2548 0 24 0C10.7452 0 0 10.7452 0 24C0 37.2548 10.7452 48 24 48Z" fill="#3A3B3B"/>
<rect opacity="0.01" x="12" y="12" width="24" height="24" fill="white"/>
<path fill-rule="evenodd" clip-rule="evenodd" d="M29.5 34H21.1667C20.7064 34 20.3333 33.6269 20.3333 33.1667C20.3333 32.7064 20.7064 32.3333 21.1667 32.3333H29.5C29.9602 32.3333 30.3333 31.9602 30.3333 31.5V28.0417C30.2914 27.5741 30.0109 27.1613 29.5917 26.95C26.3253 25.6312 22.6747 25.6312 19.4083 26.95C18.9891 27.1613 18.7086 27.5741 18.6667 28.0417V33.1667C18.6667 33.6269 18.2936 34 17.8333 34C17.3731 34 17 33.6269 17 33.1667V28.0417C17.0369 26.8914 17.7303 25.8642 18.7833 25.4C22.4504 23.9182 26.5496 23.9182 30.2167 25.4C31.2697 25.8642 31.9631 26.8914 32 28.0417V31.5C32 32.8807 30.8807 34 29.5 34ZM28.6667 18.1667C28.6667 15.8655 26.8012 14 24.5 14C22.1988 14 20.3333 15.8655 20.3333 18.1667C20.3333 20.4679 22.1988 22.3333 24.5 22.3333C26.8012 22.3333 28.6667 20.4679 28.6667 18.1667ZM27 18.1667C27 19.5474 25.8807 20.6667 24.5 20.6667C23.1193 20.6667 22 19.5474 22 18.1667C22 16.786 23.1193 15.6667 24.5 15.6667C25.8807 15.6667 27 16.786 27 18.1667Z" fill="white"/>
</svg>
