<svg width="48" height="48" viewBox="0 0 48 48" fill="none" xmlns="http://www.w3.org/2000/svg">
<path fill-rule="evenodd" clip-rule="evenodd" d="M24 48C37.2548 48 48 37.2548 48 24C48 10.7452 37.2548 0 24 0C10.7452 0 0 10.7452 0 24C0 37.2548 10.7452 48 24 48Z" fill="#3A3B3B"/>
<rect opacity="0.01" x="12" y="12" width="24" height="24" fill="white"/>
<path fill-rule="evenodd" clip-rule="evenodd" d="M25.6295 33.9977C23.1186 33.9977 19.7594 31.2082 17.3942 27.9479C14.472 23.9176 12.6981 18.6636 15.1747 16.8752L16.8886 15.6173C17.393 15.2461 18.0328 15.109 18.6453 15.2408C19.2 15.3633 19.6748 15.7188 19.9479 16.2163L21.5675 19.3738C21.7662 19.7919 21.596 20.2919 21.1834 20.5025C20.7708 20.7132 20.2652 20.5581 20.0422 20.1525L18.4311 17.0121C18.3929 16.9574 18.3342 16.9204 18.2683 16.9094C18.1361 16.8827 17.9989 16.9139 17.8912 16.995L16.1773 18.2528C15.1661 18.9887 15.6632 22.6426 18.7482 26.9382C21.8332 31.2338 25.1924 32.8425 26.2036 32.0724L27.9175 30.8145C28.0314 30.7384 28.1065 30.6166 28.1232 30.4808C28.1353 30.4068 28.1133 30.3313 28.0632 30.2754L26.2893 28.487C26.0671 28.2598 25.7372 28.1742 25.4324 28.2645L24.2327 28.5811C23.294 28.8208 22.3001 28.5131 21.6618 27.7853L21.1905 27.2377C20.4397 26.3708 19.7658 25.4403 19.1766 24.4567L18.2854 22.9506C18.093 22.6865 18.068 22.336 18.221 22.0473C18.3739 21.7585 18.6781 21.5819 19.0051 21.5921C19.332 21.6022 19.6247 21.7973 19.7594 22.0949L20.6763 23.6266C21.2141 24.5345 21.8306 25.3935 22.5188 26.1937L22.9901 26.7414C23.2028 26.984 23.5341 27.0865 23.847 27.0067L25.0468 26.69C25.9366 26.4549 26.8845 26.7127 27.5319 27.3661L29.3229 29.1716C29.719 29.5854 29.9159 30.1504 29.8628 30.7204C29.801 31.3445 29.4732 31.9119 28.963 32.2778L27.2491 33.5357C26.7729 33.8594 26.205 34.0214 25.6295 33.9977ZM29.7428 22.3089C30.0928 21.3623 29.9619 20.3052 29.3916 19.4723C28.8213 18.6394 27.8823 18.1339 26.8721 18.1159C26.3988 18.1159 26.0151 18.499 26.0151 18.9716C26.0151 19.4442 26.3988 19.8273 26.8721 19.8273C27.3278 19.835 27.7516 20.0629 28.0087 20.4388C28.2659 20.8146 28.3245 21.2916 28.166 21.7184C28.0604 22.0058 28.1164 22.3276 28.3128 22.5626C28.5092 22.7977 28.8163 22.9102 29.1183 22.8578C29.4204 22.8055 29.6715 22.5962 29.7771 22.3089H29.7428ZM33.522 24.2684C34.3848 21.9509 34.0671 19.3594 32.6702 17.318C31.2732 15.2767 28.9707 14.0395 26.495 14C26.0217 14 25.638 14.3831 25.638 14.8557C25.638 15.3283 26.0217 15.7114 26.495 15.7114C28.4141 15.7416 30.1991 16.7001 31.2825 18.282C32.3659 19.864 32.613 21.8727 31.9452 23.6694C31.7819 24.1137 32.0102 24.606 32.4551 24.769C32.9 24.932 33.393 24.7041 33.5563 24.2599L33.522 24.2684Z" fill="white"/>
</svg>
