<svg width="48" height="48" viewBox="0 0 48 48" fill="none" xmlns="http://www.w3.org/2000/svg">
<path fill-rule="evenodd" clip-rule="evenodd" d="M24 48C37.2548 48 48 37.2548 48 24C48 10.7452 37.2548 0 24 0C10.7452 0 0 10.7452 0 24C0 37.2548 10.7452 48 24 48Z" fill="#3A3B3B"/>
<rect opacity="0.01" x="14" y="12" width="24" height="24" fill="white"/>
<path fill-rule="evenodd" clip-rule="evenodd" d="M18.895 34C18.4007 34 18 33.6026 18 33.1124V16.6646C17.9994 15.7129 18.5109 14.8333 19.3417 14.3572C20.1726 13.8811 21.1964 13.8809 22.0274 14.3568L33.6623 21.0406C34.4903 21.517 35 22.3946 35 23.344C35 24.2934 34.4903 25.171 33.6623 25.6474L22.9224 31.8608C22.645 32.0357 22.2932 32.0457 22.0061 31.8868C21.7191 31.7279 21.5429 31.4257 21.5474 31.0997C21.5518 30.7737 21.7361 30.4763 22.0274 30.3252L32.7673 24.1118C33.0433 23.953 33.2132 23.6605 33.2132 23.344C33.2132 23.0275 33.0433 22.735 32.7673 22.5762L21.1325 15.8924C20.855 15.7335 20.5131 15.7338 20.2359 15.8932C19.9588 16.0527 19.7887 16.3468 19.79 16.6646V33.1124C19.79 33.6026 19.3893 34 18.895 34Z" fill="white"/>
</svg>
