<svg width="48" height="48" viewBox="0 0 48 48" fill="none" xmlns="http://www.w3.org/2000/svg">
<path fill-rule="evenodd" clip-rule="evenodd" d="M24 48C37.2548 48 48 37.2548 48 24C48 10.7452 37.2548 0 24 0C10.7452 0 0 10.7452 0 24C0 37.2548 10.7452 48 24 48Z" fill="#3A3B3B"/>
<rect width="24" height="24" transform="translate(12 12)" fill="#3A3B3B"/>
<mask id="path-2-inside-1_1338_163" fill="white">
<path fill-rule="evenodd" clip-rule="evenodd" d="M18.6186 19.8149C18.9909 18.8029 19.9719 18.149 21.0462 18.1499L21.0447 19.8499C20.6469 19.8496 20.3197 20.0943 20.2083 20.418L20.2004 20.4411L20.1911 20.4637C19.9125 21.144 19.2304 21.5511 18.5169 21.5166H15V19.8166H18.5409H18.5697L18.5983 19.8185C18.6075 19.8191 18.6143 19.8171 18.6186 19.8149ZM23.5308 19.8166H34V21.5166H23.5068H23.4781L23.4494 21.5146C23.4403 21.514 23.4334 21.516 23.4291 21.5182C23.0568 22.5302 22.0758 23.1842 21.0015 23.1832L21.003 21.4832C21.4008 21.4836 21.728 21.2389 21.8394 20.9151L21.8473 20.892L21.8566 20.8694C22.1352 20.1891 22.8174 19.782 23.5308 19.8166ZM28.7485 27.0847C28.6371 26.7609 28.3099 26.5162 27.9121 26.5166L27.9106 24.8166C28.9849 24.8156 29.9659 25.4696 30.3382 26.4816C30.3425 26.4838 30.3494 26.4858 30.3585 26.4852L30.3872 26.4832H30.4159H34V28.1832H30.4399C29.7265 28.2178 29.0443 27.8107 28.7657 27.1304L28.7564 27.1078L28.7485 27.0847ZM25.426 26.4832C26.1394 26.4487 26.8216 26.8558 27.1002 27.5361L27.1095 27.5587L27.1174 27.5818C27.2288 27.9055 27.556 28.1503 27.9538 28.1499L27.9553 29.8499C26.881 29.8508 25.9 29.1969 25.5277 28.1849C25.5234 28.1827 25.5166 28.1807 25.5074 28.1813L25.4787 28.1832H25.45H15V26.4832H25.426Z"/>
</mask>
<path d="M21.0462 18.1499L23.0462 18.1517L23.048 16.1517L21.048 16.1499L21.0462 18.1499ZM18.6186 19.8149L19.5317 21.5943L20.2262 21.2379L20.4957 20.5054L18.6186 19.8149ZM21.0447 19.8499L21.043 21.8499L23.043 21.8517L23.0447 19.8517L21.0447 19.8499ZM20.2083 20.418L22.0996 21.0686L22.0996 21.0686L20.2083 20.418ZM20.2004 20.4411L22.0512 21.1992L22.0729 21.146L22.0916 21.0917L20.2004 20.4411ZM20.1911 20.4637L22.0419 21.2218L22.0419 21.2218L20.1911 20.4637ZM18.5169 21.5166L18.6136 19.5189L18.5653 19.5166H18.5169V21.5166ZM15 21.5166H13V23.5166H15V21.5166ZM15 19.8166V17.8166H13V19.8166H15ZM18.5697 19.8166L18.7047 17.8211L18.6373 17.8166H18.5697V19.8166ZM18.5983 19.8185L18.7334 17.8231L18.7334 17.8231L18.5983 19.8185ZM34 19.8166H36V17.8166H34V19.8166ZM23.5308 19.8166L23.4341 21.8142L23.4824 21.8166H23.5308V19.8166ZM34 21.5166V23.5166H36V21.5166H34ZM23.4781 21.5166L23.343 23.512L23.4104 23.5166H23.4781V21.5166ZM23.4494 21.5146L23.3143 23.5101H23.3143L23.4494 21.5146ZM23.4291 21.5182L22.516 19.7389L21.8215 20.0952L21.5521 20.8278L23.4291 21.5182ZM21.0015 23.1832L19.0015 23.1815L18.9998 25.1815L20.9998 25.1832L21.0015 23.1832ZM21.003 21.4832L21.0048 19.4832L19.0048 19.4815L19.003 21.4815L21.003 21.4832ZM21.8394 20.9151L19.9482 20.2646L19.9482 20.2646L21.8394 20.9151ZM21.8473 20.892L19.9966 20.134L19.9748 20.1871L19.9561 20.2415L21.8473 20.892ZM21.8566 20.8694L20.0058 20.1114L20.0058 20.1114L21.8566 20.8694ZM27.9121 26.5166L25.9121 26.5183L25.9139 28.5183L27.9139 28.5166L27.9121 26.5166ZM28.7485 27.0847L26.8572 27.7352L26.8572 27.7352L28.7485 27.0847ZM27.9106 24.8166L27.9089 22.8166L25.9089 22.8183L25.9106 24.8183L27.9106 24.8166ZM30.3382 26.4816L28.4612 27.172L28.7306 27.9046L29.4251 28.261L30.3382 26.4816ZM30.3585 26.4852L30.2234 24.4897H30.2234L30.3585 26.4852ZM30.3872 26.4832V24.4832H30.3195L30.2521 24.4878L30.3872 26.4832ZM34 26.4832H36V24.4832H34V26.4832ZM34 28.1832V30.1832H36V28.1832H34ZM30.4399 28.1832V26.1832H30.3915L30.3432 26.1856L30.4399 28.1832ZM28.7657 27.1304L26.9149 27.8884L26.9149 27.8884L28.7657 27.1304ZM28.7564 27.1078L26.8652 27.7583L26.8839 27.8127L26.9057 27.8658L28.7564 27.1078ZM27.1002 27.5361L28.951 26.7781L28.951 26.778L27.1002 27.5361ZM25.426 26.4832V28.4832H25.4744L25.5227 28.4809L25.426 26.4832ZM27.1095 27.5587L29.0007 26.9081L28.982 26.8538L28.9603 26.8007L27.1095 27.5587ZM27.1174 27.5818L29.0087 26.9312L29.0087 26.9312L27.1174 27.5818ZM27.9538 28.1499L29.9538 28.1481L29.952 26.1481L27.952 26.1499L27.9538 28.1499ZM27.9553 29.8499L27.957 31.8499L29.957 31.8481L29.9553 29.8481L27.9553 29.8499ZM25.5277 28.1849L27.4048 27.4944L27.1353 26.7618L26.4408 26.4055L25.5277 28.1849ZM25.5074 28.1813L25.3723 26.1859H25.3723L25.5074 28.1813ZM25.4787 28.1832V30.1832H25.5464L25.6138 30.1787L25.4787 28.1832ZM15 28.1832H13V30.1832H15V28.1832ZM15 26.4832V24.4832H13V26.4832H15ZM21.048 16.1499C19.1718 16.1483 17.4161 17.2908 16.7416 19.1244L20.4957 20.5054C20.5657 20.315 20.772 20.1497 21.0444 20.1499L21.048 16.1499ZM23.0447 19.8517L23.0462 18.1517L19.0462 18.1482L19.0447 19.8482L23.0447 19.8517ZM22.0996 21.0686C21.9229 21.5822 21.4681 21.8503 21.043 21.8499L21.0465 17.8499C19.8257 17.8488 18.7165 18.6063 18.3171 19.7675L22.0996 21.0686ZM22.0916 21.0917L22.0996 21.0686L18.3171 19.7675L18.3091 19.7906L22.0916 21.0917ZM22.0419 21.2218L22.0512 21.1992L18.3496 19.6831L18.3403 19.7057L22.0419 21.2218ZM18.4203 23.5142C19.9399 23.5878 21.4273 22.7224 22.0419 21.2218L18.3403 19.7057C18.3977 19.5656 18.5209 19.5144 18.6136 19.5189L18.4203 23.5142ZM15 23.5166H18.5169V19.5166H15V23.5166ZM13 19.8166V21.5166H17V19.8166H13ZM18.5409 17.8166H15V21.8166H18.5409V17.8166ZM18.5697 17.8166H18.5409V21.8166H18.5697V17.8166ZM18.7334 17.8231L18.7047 17.8211L18.4346 21.812L18.4632 21.8139L18.7334 17.8231ZM17.7055 18.0355C18.021 17.8736 18.3761 17.7989 18.7334 17.8231L18.4632 21.8139C18.8388 21.8394 19.2076 21.7606 19.5317 21.5943L17.7055 18.0355ZM34 17.8166H23.5308V21.8166H34V17.8166ZM36 21.5166V19.8166H32V21.5166H36ZM23.5068 23.5166H34V19.5166H23.5068V23.5166ZM23.4781 23.5166H23.5068V19.5166H23.4781V23.5166ZM23.3143 23.5101L23.343 23.512L23.6132 19.5211L23.5845 19.5192L23.3143 23.5101ZM24.3422 23.2976C24.0267 23.4595 23.6716 23.5342 23.3143 23.5101L23.5845 19.5192C23.2089 19.4938 22.8401 19.5725 22.516 19.7389L24.3422 23.2976ZM20.9998 25.1832C22.8759 25.1849 24.6316 24.0423 25.3061 22.2087L21.5521 20.8278C21.482 21.0181 21.2758 21.1835 21.0033 21.1832L20.9998 25.1832ZM19.003 21.4815L19.0015 23.1815L23.0015 23.185L23.003 21.485L19.003 21.4815ZM19.9482 20.2646C20.1248 19.7509 20.5796 19.4829 21.0048 19.4832L21.0013 23.4832C22.222 23.4843 23.3312 22.7269 23.7306 21.5656L19.9482 20.2646ZM19.9561 20.2415L19.9482 20.2646L23.7306 21.5656L23.7386 21.5425L19.9561 20.2415ZM20.0058 20.1114L19.9966 20.134L23.6981 21.65L23.7074 21.6274L20.0058 20.1114ZM23.6275 17.8189C22.1079 17.7454 20.6205 18.6107 20.0058 20.1114L23.7074 21.6274C23.65 21.7676 23.5269 21.8187 23.4341 21.8142L23.6275 17.8189ZM27.9139 28.5166C27.4887 28.5169 27.0339 28.2489 26.8572 27.7352L30.6397 26.4342C30.2403 25.2729 29.1311 24.5155 27.9104 24.5166L27.9139 28.5166ZM25.9106 24.8183L25.9121 26.5183L29.9121 26.5148L29.9106 24.8148L25.9106 24.8183ZM32.2152 25.7911C31.5407 23.9575 29.785 22.8149 27.9089 22.8166L27.9124 26.8166C28.1848 26.8163 28.3911 26.9817 28.4612 27.172L32.2152 25.7911ZM30.2234 24.4897C30.5807 24.4656 30.9358 24.5403 31.2513 24.7022L29.4251 28.261C29.7492 28.4273 30.118 28.506 30.4936 28.4806L30.2234 24.4897ZM30.2521 24.4878L30.2234 24.4897L30.4936 28.4806L30.5223 28.4787L30.2521 24.4878ZM30.4159 24.4832H30.3872V28.4832H30.4159V24.4832ZM34 24.4832H30.4159V28.4832H34V24.4832ZM36 28.1832V26.4832H32V28.1832H36ZM30.4399 30.1832H34V26.1832H30.4399V30.1832ZM26.9149 27.8884C27.5296 29.3891 29.017 30.2544 30.5366 30.1809L30.3432 26.1856C30.436 26.1811 30.5591 26.2322 30.6165 26.3724L26.9149 27.8884ZM26.9057 27.8658L26.9149 27.8884L30.6165 26.3724L30.6072 26.3498L26.9057 27.8658ZM26.8572 27.7352L26.8652 27.7583L30.6477 26.4573L30.6397 26.4342L26.8572 27.7352ZM28.951 26.778C28.3364 25.2774 26.8489 24.412 25.3294 24.4856L25.5227 28.4809C25.4299 28.4854 25.3068 28.4342 25.2494 28.2941L28.951 26.778ZM28.9603 26.8007L28.951 26.7781L25.2494 28.2941L25.2587 28.3167L28.9603 26.8007ZM29.0087 26.9312L29.0007 26.9081L25.2182 28.2092L25.2262 28.2323L29.0087 26.9312ZM27.952 26.1499C28.3772 26.1495 28.832 26.4176 29.0087 26.9312L25.2262 28.2323C25.6256 29.3935 26.7348 30.151 27.9556 30.1499L27.952 26.1499ZM29.9553 29.8481L29.9538 28.1481L25.9538 28.1517L25.9553 29.8517L29.9553 29.8481ZM23.6507 28.8754C24.3252 30.709 26.0809 31.8515 27.957 31.8499L27.9535 27.8499C27.6811 27.8501 27.4748 27.6848 27.4048 27.4944L23.6507 28.8754ZM25.6425 30.1767C25.2852 30.2009 24.9301 30.1262 24.6147 29.9643L26.4408 26.4055C26.1167 26.2392 25.7479 26.1604 25.3723 26.1859L25.6425 30.1767ZM25.6138 30.1787L25.6425 30.1767L25.3723 26.1859L25.3436 26.1878L25.6138 30.1787ZM25.45 30.1832H25.4787V26.1832H25.45V30.1832ZM15 30.1832H25.45V26.1832H15V30.1832ZM13 26.4832V28.1832H17V26.4832H13ZM25.426 24.4832H15V28.4832H25.426V24.4832Z" fill="white" mask="url(#path-2-inside-1_1338_163)"/>
</svg>
