<svg width="48" height="48" viewBox="0 0 48 48" fill="none" xmlns="http://www.w3.org/2000/svg">
<path fill-rule="evenodd" clip-rule="evenodd" d="M24 48C37.2548 48 48 37.2548 48 24C48 10.7452 37.2548 0 24 0C10.7452 0 0 10.7452 0 24C0 37.2548 10.7452 48 24 48Z" fill="#3A3B3B"/>
<rect opacity="0.01" x="12" y="12" width="24" height="24" fill="white"/>
<path fill-rule="evenodd" clip-rule="evenodd" d="M29.5 34H21.1667C20.7064 34 20.3333 33.6269 20.3333 33.1667C20.3333 32.7064 20.7064 32.3333 21.1667 32.3333H29.5C29.9602 32.3333 30.3333 31.9602 30.3333 31.5V19.6917C30.3346 19.4702 30.2477 19.2573 30.0917 19.1L26.9 15.9083C26.7427 15.7523 26.5298 15.6654 26.3083 15.6667H19.5C19.0398 15.6667 18.6667 16.0398 18.6667 16.5V33.1667C18.6667 33.6269 18.2936 34 17.8333 34C17.3731 34 17 33.6269 17 33.1667V16.5C17 15.1193 18.1193 14 19.5 14H26.3083C26.9712 14.0006 27.6066 14.2644 28.075 14.7333L31.2667 17.925C31.7356 18.3934 31.9994 19.0288 32 19.6917V31.5C32 32.8807 30.8807 34 29.5 34Z" fill="white"/>
</svg>
