<svg width="48" height="48" viewBox="0 0 48 48" fill="none" xmlns="http://www.w3.org/2000/svg">
<path fill-rule="evenodd" clip-rule="evenodd" d="M24 48C37.2548 48 48 37.2548 48 24C48 10.7452 37.2548 0 24 0C10.7452 0 0 10.7452 0 24C0 37.2548 10.7452 48 24 48Z" fill="#3A3B3B"/>
<rect opacity="0.01" x="12" y="12" width="24" height="24" fill="white"/>
<path fill-rule="evenodd" clip-rule="evenodd" d="M19.0235 33.9913C18.7373 33.9923 18.4699 33.8507 18.3127 33.615C18.1555 33.3792 18.1297 33.0812 18.2442 32.8226L25.868 15.7017C26.0651 15.2671 26.4411 14.936 26.9015 14.7918C27.3472 14.6524 27.8316 14.7007 28.2399 14.9254C30.6428 16.2564 32.1294 18.7619 32.1281 21.4782V26.3866L32.9751 29.6255C33.0388 29.8789 32.9786 30.147 32.8123 30.3502C32.646 30.5534 32.3928 30.6683 32.1281 30.6606H28.655C28.3827 31.9757 27.4852 33.0816 26.2431 33.6324C25.001 34.1832 23.5659 34.1117 22.3865 33.4404C22.1108 33.2982 21.9363 33.0186 21.9321 32.712C21.9279 32.4054 22.0946 32.1212 22.3663 31.9718C22.638 31.8223 22.971 31.8317 23.2336 31.9962C23.9415 32.399 24.8028 32.4417 25.5481 32.1109C26.2934 31.78 26.8317 31.1161 26.9947 30.3267C27.151 29.5302 27.8657 28.9596 28.6889 28.9744H31.0777L30.4932 26.6704C30.485 26.6039 30.485 26.5366 30.4932 26.4701V21.4615C30.4925 19.3505 29.3365 17.4039 27.469 16.3695L19.8452 33.4821C19.707 33.805 19.3788 34.0084 19.0235 33.9913ZM17.7275 30.0178L18.5746 26.6788C18.5828 26.6123 18.5828 26.545 18.5746 26.4785V21.4699C18.5748 18.5365 20.782 16.058 23.7334 15.6766C24.2012 15.6167 24.5312 15.1944 24.4703 14.7334C24.4095 14.2723 23.981 13.9472 23.5131 14.0071C19.7194 14.4973 16.8819 17.6826 16.8804 21.4532V26.3616L16.0333 29.6005C15.9471 29.8944 16.031 30.2112 16.2519 30.4262C16.4729 30.6411 16.7954 30.7198 17.0926 30.6311C17.3897 30.5425 17.6138 30.3008 17.6767 30.0011L17.7275 30.0178Z" fill="white"/>
</svg>
