<svg width="28" height="28" viewBox="0 0 28 28" fill="none" xmlns="http://www.w3.org/2000/svg">
<rect opacity="0.01" width="28" height="28" fill="white"/>
<path fill-rule="evenodd" clip-rule="evenodd" d="M14.4821 26H13.488C12.1543 25.9962 10.9852 25.1026 10.6251 23.8118C10.4768 23.2793 10.7861 22.7268 11.316 22.5779C11.8458 22.4289 12.3954 22.7398 12.5437 23.2723C12.6674 23.7171 13.0785 24.0187 13.5377 24.0017H14.5318C14.9911 24.0187 15.4022 23.7171 15.5259 23.2723L15.9832 21.6037C16.1417 21.0303 16.5463 20.5578 17.0867 20.3147C17.2457 20.2448 17.4048 20.1549 17.5638 20.0649C17.7229 19.975 17.872 19.8751 18.0211 19.7752C18.4971 19.4287 19.1012 19.3116 19.6713 19.4555L21.3513 19.8851C21.7822 19.994 22.2327 19.8023 22.4548 19.4155L22.9319 18.5862C23.1555 18.1982 23.0946 17.7079 22.7828 17.3872L21.57 16.1582C21.1634 15.7393 20.9599 15.1623 21.0133 14.5795C21.0429 14.2038 21.0429 13.8262 21.0133 13.4505C20.9629 12.871 21.1662 12.2983 21.57 11.8818L22.7828 10.6428C23.0946 10.322 23.1555 9.83182 22.9319 9.4438L22.4548 8.61449C22.2315 8.22339 21.7754 8.031 21.3414 8.14488L19.6614 8.57452C19.099 8.71501 18.5036 8.6019 18.031 8.26478C17.7155 8.05127 17.383 7.86413 17.037 7.70525C16.5124 7.45949 16.1204 6.99618 15.9633 6.4363L15.4961 4.74771C15.3723 4.30284 14.9613 4.00125 14.502 4.01832H13.5079C13.0487 4.00125 12.6376 4.30284 12.5138 4.74771L12.0566 6.40633C11.898 6.97967 11.4935 7.45218 10.9531 7.69525C10.7941 7.77519 10.6251 7.85512 10.4759 7.94505C10.3268 8.03497 10.1678 8.13489 10.0187 8.2348C9.54265 8.5813 8.93851 8.69835 8.36847 8.55454L6.68846 8.1249C6.25756 8.01599 5.80708 8.20771 5.58501 8.5945L5.10785 9.42381C4.88425 9.81183 4.94521 10.3021 5.25696 10.6228L6.46976 11.8518C6.87636 12.2707 7.07983 12.8477 7.02645 13.4305C6.99591 13.8062 6.99591 14.1838 7.02645 14.5595C7.07685 15.1389 6.8736 15.7117 6.46976 16.1282L5.25696 17.3672C4.94521 17.688 4.88425 18.1782 5.10785 18.5662L5.58501 19.3955C5.80822 19.7866 6.26436 19.979 6.6984 19.8651C7.0429 19.7759 7.4086 19.8781 7.65774 20.1334C7.90688 20.3886 8.00162 20.7581 7.90626 21.1026C7.81091 21.4471 7.53994 21.7143 7.19544 21.8035C5.89961 22.1352 4.54253 21.5593 3.87518 20.3947L3.39801 19.5654C2.72977 18.3991 2.91677 16.9282 3.85529 15.9684L5.06809 14.7294C5.02467 14.2441 5.02467 13.7559 5.06809 13.2706L3.89506 12.0117C2.95165 11.0501 2.76442 9.57326 3.43778 8.40466L3.91494 7.57535C4.58528 6.4145 5.94168 5.84304 7.23521 6.17652L8.91522 6.60616C9.11685 6.4589 9.32589 6.32217 9.5415 6.1965C9.74694 6.0766 9.95902 5.96669 10.1777 5.86678L10.6549 4.19817C11.0123 2.89983 12.1875 2.00061 13.5278 2H14.5219C15.8557 2.00384 17.0248 2.89736 17.3849 4.18818L17.8521 5.87677C18.2966 6.07817 18.7225 6.31892 19.1245 6.59617L20.8046 6.17652C22.1004 5.84485 23.4575 6.42067 24.1248 7.58535L24.602 8.41465C25.2702 9.58088 25.0832 11.0518 24.1447 12.0117L22.912 13.2806C22.9546 13.7659 22.9546 14.2541 22.912 14.7394L24.1149 15.9883C25.0583 16.9499 25.2455 18.4267 24.5722 19.5953L24.095 20.4246C23.4247 21.5855 22.0683 22.157 20.7747 21.8235L19.0947 21.3938C18.8931 21.5411 18.6841 21.6778 18.4684 21.8035C18.2597 21.9234 18.0509 22.0333 17.8322 22.1332L17.3551 23.8018C16.9977 25.1002 15.8224 25.9994 14.4821 26ZM18.9357 14.01C18.9357 11.2509 16.7103 9.01415 13.9652 9.01415C11.2201 9.01415 8.99475 11.2509 8.99475 14.01C8.99475 16.7691 11.2201 19.0058 13.9652 19.0058C16.7103 19.0058 18.9357 16.7691 18.9357 14.01ZM16.9475 14.01C16.9475 15.6655 15.6123 17.0075 13.9652 17.0075C12.3181 17.0075 10.9829 15.6655 10.9829 14.01C10.9829 12.3545 12.3181 11.0125 13.9652 11.0125C15.6123 11.0125 16.9475 12.3545 16.9475 14.01Z" fill="#3A3B3B"/>
</svg>
