<svg width="116" height="116" viewBox="0 0 116 116" fill="none" xmlns="http://www.w3.org/2000/svg">
<rect width="116" height="116" fill="white"/>
<path fill-rule="evenodd" clip-rule="evenodd" d="M58 116C90.0325 116 116 90.0325 116 58C116 25.9675 90.0325 0 58 0C25.9675 0 0 25.9675 0 58C0 90.0325 25.9675 116 58 116Z" fill="#3A3B3B"/>
<rect opacity="0.01" x="34" y="34" width="48" height="48" fill="white"/>
<path fill-rule="evenodd" clip-rule="evenodd" d="M69.84 78.9812C69.3697 78.9832 68.906 78.8735 68.4891 78.6619L58.8395 73.759C58.2776 73.4717 57.6066 73.4717 57.0447 73.759L54.8446 74.8861C53.9055 75.3393 52.7664 74.9801 52.2788 74.0769C51.7913 73.1736 52.1335 72.0568 53.0498 71.5611L55.2499 70.434C56.9355 69.5723 58.9487 69.5723 60.6343 70.434L68.4698 74.454L66.9644 65.9632C66.6445 64.1393 67.2649 62.2787 68.6241 60.9852L74.9735 54.974L66.2118 53.7342C64.3256 53.4686 62.6945 52.3165 61.8502 50.6535L57.9904 42.9328L54.1305 50.6535C53.2862 52.3165 51.6551 53.4686 49.7689 53.7342L41.0072 54.974L47.3566 60.9852C48.722 62.2828 49.3429 64.1519 49.0163 65.982L47.1829 76.3513C47.0656 77.0224 46.5895 77.5817 45.9338 77.8185C45.2781 78.0552 44.5424 77.9335 44.0039 77.4991C43.4654 77.0648 43.2058 76.3837 43.323 75.7126L45.1565 65.3433C45.2659 64.7302 45.0563 64.1041 44.5968 63.6714L36.8771 56.3265C36.0865 55.5784 35.8011 54.458 36.1412 53.437C36.4813 52.4161 37.3877 51.6718 38.479 51.5176L49.1707 49.996C49.7983 49.9042 50.3395 49.5179 50.6181 48.9628L55.4043 39.5703C55.892 38.6087 56.8983 38 58 38C59.1017 38 60.108 38.6087 60.5957 39.5703L65.3819 48.9628C65.6605 49.5179 66.2017 49.9042 66.8293 49.996L77.521 51.5176C78.6123 51.6718 79.5187 52.4161 79.8588 53.437C80.1989 54.458 79.9135 55.5784 79.1229 56.3265L71.4032 63.6714C70.9498 64.1 70.7408 64.7175 70.8435 65.3245L72.677 75.6938C72.8254 76.5149 72.5927 77.3577 72.0415 77.9958C71.4903 78.6338 70.6771 79.0015 69.8207 79L69.84 78.9812Z" fill="white"/>
</svg>
