<svg width="48" height="48" viewBox="0 0 48 48" fill="none" xmlns="http://www.w3.org/2000/svg">
<path fill-rule="evenodd" clip-rule="evenodd" d="M24 48C37.2548 48 48 37.2548 48 24C48 10.7452 37.2548 0 24 0C10.7452 0 0 10.7452 0 24C0 37.2548 10.7452 48 24 48Z" fill="black"/>
<rect opacity="0.01" x="12" y="12" width="24" height="24" fill="white"/>
<path fill-rule="evenodd" clip-rule="evenodd" d="M29.3818 33.9913C29.1681 33.9922 28.9573 33.9414 28.7678 33.8433L24.3816 31.5712C24.1262 31.4381 23.8212 31.4381 23.5658 31.5712L22.5657 32.0936C22.1389 32.3036 21.6211 32.1371 21.3995 31.7185C21.1778 31.3 21.3334 30.7824 21.7499 30.5527L22.7499 30.0304C23.5161 29.6311 24.4312 29.6311 25.1974 30.0304L28.759 31.8933L28.0747 27.9586C27.9293 27.1133 28.2113 26.2511 28.8292 25.6517L31.7152 22.866L27.7326 22.2915C26.8753 22.1684 26.1339 21.6345 25.7501 20.8638L23.9956 17.2859L22.2412 20.8638C21.8574 21.6345 21.116 22.1684 20.2586 22.2915L16.276 22.866L19.1621 25.6517C19.7827 26.253 20.0649 27.1192 19.9165 27.9673L19.0831 32.7726C19.0298 33.0836 18.8134 33.3427 18.5154 33.4525C18.2173 33.5622 17.8829 33.5058 17.6381 33.3045C17.3933 33.1032 17.2754 32.7876 17.3287 32.4766L18.162 27.6713C18.2118 27.3872 18.1165 27.097 17.9076 26.8965L14.3987 23.4928C14.0393 23.1461 13.9096 22.6269 14.0642 22.1537C14.2188 21.6806 14.6308 21.3357 15.1268 21.2642L19.9867 20.5591C20.272 20.5166 20.518 20.3376 20.6446 20.0803L22.8201 15.7277C23.0418 15.2821 23.4992 15 24 15C24.5008 15 24.9582 15.2821 25.1799 15.7277L27.3554 20.0803C27.482 20.3376 27.728 20.5166 28.0133 20.5591L32.8732 21.2642C33.3692 21.3357 33.7812 21.6806 33.9358 22.1537C34.0904 22.6269 33.9607 23.1461 33.6013 23.4928L30.0924 26.8965C29.8863 27.0951 29.7913 27.3813 29.838 27.6626L30.6713 32.4679C30.7388 32.8483 30.6331 33.2389 30.3825 33.5346C30.132 33.8303 29.7623 34.0007 29.373 34L29.3818 33.9913Z" fill="white"/>
</svg>
