<svg width="58" height="58" viewBox="0 0 58 58" fill="none" xmlns="http://www.w3.org/2000/svg">
<path fill-rule="evenodd" clip-rule="evenodd" d="M29 58C45.0163 58 58 45.0163 58 29C58 12.9837 45.0163 0 29 0C12.9837 0 0 12.9837 0 29C0 45.0163 12.9837 58 29 58Z" fill="#3A3B3B"/>
<rect opacity="0.01" x="15" y="15" width="28" height="28" fill="white"/>
<path fill-rule="evenodd" clip-rule="evenodd" d="M35 41H25C24.4477 41 24 40.5523 24 40C24 39.4477 24.4477 39 25 39H35C35.5523 39 36 38.5523 36 38V33.85C35.9497 33.2889 35.6131 32.7935 35.11 32.54C31.1904 30.9574 26.8096 30.9574 22.89 32.54C22.3869 32.7935 22.0503 33.2889 22 33.85V40C22 40.5523 21.5523 41 21 41C20.4477 41 20 40.5523 20 40V33.85C20.0442 32.4697 20.8763 31.2371 22.14 30.68C26.5405 28.9018 31.4595 28.9018 35.86 30.68C37.1237 31.2371 37.9558 32.4697 38 33.85V38C38 39.6569 36.6569 41 35 41ZM34 22C34 19.2386 31.7614 17 29 17C26.2386 17 24 19.2386 24 22C24 24.7614 26.2386 27 29 27C31.7614 27 34 24.7614 34 22ZM32 22C32 23.6569 30.6569 25 29 25C27.3431 25 26 23.6569 26 22C26 20.3431 27.3431 19 29 19C30.6569 19 32 20.3431 32 22Z" fill="white"/>
</svg>
